<svg id="Calque_1" data-name="Calque 1" xmlns="http://www.w3.org/2000/svg" viewBox="0 0 192 163"><defs><style>.cls-1,.cls-2{fill:#fff;}.cls-2{opacity:0.5;}</style></defs><title>logo customer alliance</title><path class="cls-1" d="M22.08,98.8A9.82,9.82,0,0,0,12,108.71c0,6.12,4.76,9.86,10.11,9.86A12,12,0,0,0,28.63,117l-.55,2.51c-1.45.85-3.32,1.23-6.25,1.23-6.25,0-12.33-4.55-12.33-12.08s6.16-12.07,12.33-12.07a13.36,13.36,0,0,1,6.84,1.57l-.46,2.13A13,13,0,0,0,22.08,98.8Zm19.31,22c-5.44,0-9.1-3.23-9.1-8.46V97.1h2.46v15c0,4.08,2.43,6.5,6.68,6.5s6.68-2.42,6.68-6.5v-15h2.38v15.22c0,5.27-3.66,8.46-9.1,8.46Zm19.43,0A10.88,10.88,0,0,1,54.65,119L54,116.1a11,11,0,0,0,7,2.56c2.93,0,5-1.66,5-4.3,0-2.46-1.45-3.91-4.72-5-4.21-1.44-6.12-3.65-6.12-6.76,0-2.89,2.17-5.86,6.89-5.86a8.88,8.88,0,0,1,4.93,1.36l-.51,2a8.34,8.34,0,0,0-4.51-1.36c-2.93,0-4.46,1.87-4.46,3.65s1.31,3.28,4.29,4.43c4.21,1.57,6.68,3.53,6.68,7.31,0,4-2.9,6.63-7.57,6.63Zm18.92-.38H77.27V99.23h-8V97.14H87.77v2.09h-8Zm19.81.38a12.06,12.06,0,1,1,12.2-12.07,11.93,11.93,0,0,1-12.2,12.07Zm0-22a9.89,9.89,0,1,0,9.69,9.86A9.62,9.62,0,0,0,99.55,98.8Zm37.67,9.48c-.13-2-.26-4.08-.34-6.08h-.13c-.85,1.92-1.95,4.34-2.89,6.21L128,120.61h-.81l-6-12.2c-.89-1.87-2-4.12-2.89-6.17h-.09c-.12,2-.21,4.17-.34,6l-1,12.08h-2.21l1.87-23.3h1.57l6.42,13c1,2.08,2.08,4.34,3,6.55h.08c.9-2.13,1.87-4.25,3-6.55l6.38-13h1.57l1.91,23.3h-2.33S137.22,108.28,137.22,108.28Zm8.5-11.18h12.16v2.08h-9.69v8.42h7.95v2.08h-7.95v8.55h11v2.08H145.72ZM170,109.73h-4V120.4h-2.46V97.1h6.63c3.53,0,6.8,2.34,6.8,6.29a6,6,0,0,1-4.55,6l8.21,11h-2.85L170,109.73Zm-.21-10.55H166v8.42h3.92c2.46,0,4.59-1.53,4.59-4.21S172.42,99.18,169.79,99.18Z"/><path class="cls-1" d="M24.76,147.35H14.9l-2.64,6.55H9.84l9.65-23.76h.77l9.65,23.76H27.4l-2.64-6.55ZM19.92,134.6h-.09c-.38,1.28-.85,2.55-1.27,3.57l-2.81,7.19h8.16l-2.76-7.19C20.72,137.11,20.3,135.88,19.92,134.6Zm17.09-4h2.46v21.18H51v2.08H37Zm19.85,0h2.47v21.18H70.89v2.08h-14Zm20.5,0h2.46v23.3H77.36Zm25,16.75H92.53L89.9,153.9H87.48l9.65-23.76h.76l9.65,23.76H105l-2.63-6.55ZM97.55,134.6h-.08c-.39,1.28-.85,2.55-1.28,3.57l-2.8,7.19h8.16l-2.77-7.19A32.25,32.25,0,0,1,97.55,134.6Zm25.26,6.67c-2-2.29-4.08-4.76-5.7-6.71l-.09,0c.13,2.17.09,4.34.09,6.46V153.9h-2.47V130.6h1.7L127.14,143c1.62,1.87,3.7,4.33,5.28,6.25l.08,0c-.13-2.08-.08-4.16-.08-6.16V130.6h2.46v23.81h-.64l-11.43-13.14Zm32.35-9c-5.23,0-10.12,3.75-10.12,9.91s4.76,9.86,10.12,9.86a12,12,0,0,0,6.55-1.57l-.55,2.51c-1.45.85-3.32,1.23-6.25,1.23-6.25,0-12.33-4.55-12.33-12.07s6.16-12.08,12.33-12.08a13.25,13.25,0,0,1,6.84,1.58l-.47,2.12a13.09,13.09,0,0,0-6.12-1.49Zm13.9-1.7h12.16v2.09h-9.69v8.37h7.95v2.09h-7.95v8.54h11v2.08H169.06V130.6Z"/><path class="cls-1" d="M113.48,57.66a.92.92,0,0,0-1.25.45,6.17,6.17,0,0,1-5.55,3.5,5.71,5.71,0,0,1-2.57-.57.93.93,0,1,0-.8,1.68,7.78,7.78,0,0,0,3.37.76,8,8,0,0,0,7.24-4.58.92.92,0,0,0-.44-1.24Zm-21.37-29Z"/><path class="cls-1" d="M116.05,10H76A18,18,0,0,0,58,28v40.1A18,18,0,0,0,76,86h40.1a18,18,0,0,0,18-18V28A18,18,0,0,0,116.05,10Zm-6.61,63.47c-1.07.4,2.13-4-.36-5.06a21.87,21.87,0,0,1-6.26.89A21.38,21.38,0,0,1,96,68.23a21.77,21.77,0,1,1-6.79-42.46A21.36,21.36,0,0,1,96,26.83a21.84,21.84,0,0,1,28.56,20.7c-.22,20.35-15.14,25.94-15.14,25.94Z"/><path class="cls-2" d="M81,47.58a21.81,21.81,0,0,1,15-20.7,21.77,21.77,0,1,0-6.8,42.46A21.38,21.38,0,0,0,96,68.28a21.93,21.93,0,0,1-15-20.7Z"/></svg>