<svg id="Calque_1" data-name="Calque 1" xmlns="http://www.w3.org/2000/svg" viewBox="0 0 591 171"><defs><style>.cls-1{fill:#636363;}.cls-2{opacity:0.3;}</style></defs><title>Plan de travail 1</title><path class="cls-1" d="M201.75,33.84c-10,0-19.32,7.22-19.32,18.91s9.09,18.83,19.32,18.83c5.19,0,9.33-1,12.5-3l-1.06,4.79c-2.76,1.62-6.33,2.35-11.93,2.35-11.93,0-23.54-8.69-23.54-23s11.77-23,23.54-23c5.77,0,10.07,1.21,13.07,3l-.89,4.06A25,25,0,0,0,201.75,33.84Zm36.85,42c-10.39,0-17.37-6.17-17.37-16.15V30.59h4.71V59.24c0,7.79,4.62,12.42,12.74,12.42S251.42,67,251.42,59.24V30.59H256V59.65c0,10.06-7,16.15-17.37,16.15Zm37.09,0a20.68,20.68,0,0,1-11.77-3.41l-1.29-5.52a21.1,21.1,0,0,0,13.31,4.87c5.6,0,9.49-3.16,9.49-8.2,0-4.7-2.76-7.46-9-9.57-8-2.76-11.68-7-11.68-12.91,0-5.52,4.14-11.2,13.15-11.2a16.91,16.91,0,0,1,9.41,2.6l-1,3.89a15.92,15.92,0,0,0-8.61-2.6c-5.6,0-8.52,3.58-8.52,7,0,3.57,2.52,6.25,8.2,8.44,8,3,12.74,6.73,12.74,14,0,7.71-5.52,12.66-14.45,12.66Zm36.12-.73h-4.7V34.65H291.85v-4h35.31v4H311.81Zm37.83.73c-12.26,0-23.3-9.09-23.3-23,0-13.72,11-23,23.3-23s23.29,9.17,23.29,23c0,14-10.95,23-23.29,23Zm0-42a18.36,18.36,0,0,0-18.51,18.83,18.51,18.51,0,1,0,37,0A18.31,18.31,0,0,0,349.64,33.84Zm71.91,18.1c-.24-3.9-.48-7.8-.64-11.61h-.25c-1.62,3.65-3.73,8.28-5.52,11.85l-11.28,23.3h-1.54L391,52.18c-1.7-3.57-3.73-7.87-5.52-11.77h-.16c-.24,3.82-.4,8-.65,11.53l-1.86,23h-4.22l3.57-44.48h3l12.26,24.92c1.94,4,4,8.28,5.76,12.5h.16c1.71-4.06,3.57-8.12,5.68-12.5l12.18-24.92h3L427.81,75h-4.47C423.42,75.07,421.55,51.94,421.55,51.94Zm16.24-21.35H461v4H442.5V50.64h15.18v4H442.5V70.93h20.94v4H437.79ZM484.14,54.7h-7.63V75.07H471.8V30.59h12.66c6.74,0,13,4.46,13,12A11.49,11.49,0,0,1,488.76,54l15.67,21H499L484.14,54.7Zm-.41-20.13h-7.22V50.64H484c4.71,0,8.77-2.92,8.77-8S488.76,34.57,483.73,34.57Z"/><path class="cls-1" d="M206.86,126.53H188L183,139h-4.63L196.8,93.66h1.46L216.68,139H211.9l-5-12.5Zm-9.25-24.35h-.16c-.73,2.44-1.63,4.87-2.44,6.82l-5.36,13.72h15.59L200,109C199.15,107,198.34,104.62,197.61,102.18Zm32.63-7.63H235V135H257v4H230.24Zm37.91,0h4.7V135h22.08v4H268.15Zm39.12,0H312V139h-4.71Zm47.81,32H336.25l-5,12.5h-4.62L345,93.66h1.46L364.9,139h-4.79l-5-12.5Zm-9.26-24.35h-.16c-.73,2.44-1.62,4.87-2.43,6.82l-5.36,13.72h15.58L348.18,109A60.83,60.83,0,0,1,345.82,102.18ZM394,114.92c-3.82-4.38-7.79-9.09-10.88-12.82l-.16.08c.24,4.14.16,8.28.16,12.34V139h-4.71V94.55h3.25l20.62,23.62c3.08,3.57,7.06,8.28,10.06,11.93l.17-.08c-.25-4-.17-8-.17-11.77V94.55h4.71V140h-1.22L394,114.92ZM455.81,97.8c-10,0-19.32,7.14-19.32,18.91s9.09,18.83,19.32,18.83c5.19,0,9.33-1,12.5-3l-1.06,4.79c-2.76,1.62-6.33,2.35-11.93,2.35-11.93,0-23.54-8.68-23.54-23.05s11.77-23,23.54-23c5.76,0,10.07,1.21,13.07,3l-.89,4.06a25,25,0,0,0-11.69-2.84Zm26.54-3.25h23.21v4h-18.5v16h15.18v4H487.06v16.31H508v4H482.35V94.55Z"/><path class="cls-1" d="M122.37,103.15a1.67,1.67,0,0,0-2.28.82A11.31,11.31,0,0,1,110,110.38a10.51,10.51,0,0,1-4.71-1.06,1.71,1.71,0,0,0-1.46,3.09,14.34,14.34,0,0,0,6.17,1.38,14.63,14.63,0,0,0,13.23-8.36,1.7,1.7,0,0,0-.81-2.28ZM83.32,50.07Z"/><path class="cls-1" d="M127.07,16.06H53.78A32.91,32.91,0,0,0,21,48.85v73.3a32.91,32.91,0,0,0,32.79,32.79h73.29a32.91,32.91,0,0,0,32.8-32.79V48.85A32.91,32.91,0,0,0,127.07,16.06ZM115,132.05c-2,.73,3.9-7.22-.65-9.25a40.39,40.39,0,0,1-11.44,1.62,38.93,38.93,0,0,1-12.42-2,39.79,39.79,0,1,1-12.42-77.6,39,39,0,0,1,12.42,2,39.29,39.29,0,0,1,12.42-2,39.69,39.69,0,0,1,39.77,39.78c-.41,37.17-27.68,47.4-27.68,47.4Z"/><path class="cls-2" d="M63,84.73A39.88,39.88,0,0,1,90.39,46.9,39.79,39.79,0,1,0,78,124.5a39,39,0,0,0,12.42-2A40,40,0,0,1,63,84.73Z"/></svg>