<svg id="Calque_1" data-name="Calque 1" xmlns="http://www.w3.org/2000/svg" viewBox="0 0 591 171"><defs><style>.cls-1,.cls-2{fill:#fff;}.cls-2{opacity:0.5;}</style></defs><title>Plan de travail 1 copie 3</title><path class="cls-1" d="M122.57,103.14a1.66,1.66,0,0,0-2.27.82,11.32,11.32,0,0,1-10.14,6.41,10.54,10.54,0,0,1-4.71-1.06,1.7,1.7,0,1,0-1.46,3.08,14.23,14.23,0,0,0,6.17,1.38,14.59,14.59,0,0,0,13.22-8.35,1.69,1.69,0,0,0-.81-2.28Zm-39-53Z"/><path class="cls-1" d="M201.91,33.86c-10,0-19.31,7.22-19.31,18.91s9.09,18.82,19.31,18.82c5.19,0,9.33-1,12.5-3l-1.06,4.78c-2.76,1.62-6.33,2.35-11.92,2.35-11.93,0-23.53-8.68-23.53-23s11.76-23,23.53-23c5.76,0,10.06,1.22,13.06,3l-.9,4.05A24.91,24.91,0,0,0,201.91,33.86Zm36.83,42c-10.38,0-17.36-6.17-17.36-16.15v-29h4.71V59.26c0,7.78,4.62,12.41,12.73,12.41S251.56,67,251.56,59.26V30.62h4.54v29c0,10.06-7,16.15-17.36,16.15Zm37.08,0a20.73,20.73,0,0,1-11.77-3.41l-1.29-5.52a21.1,21.1,0,0,0,13.3,4.87c5.6,0,9.49-3.16,9.49-8.19,0-4.71-2.76-7.47-9-9.58-8-2.76-11.68-7-11.68-12.9,0-5.51,4.13-11.19,13.14-11.19a17,17,0,0,1,9.41,2.59l-1,3.9a15.91,15.91,0,0,0-8.6-2.6c-5.6,0-8.52,3.57-8.52,7,0,3.57,2.51,6.25,8.19,8.44,8,3,12.74,6.73,12.74,13.95,0,7.71-5.52,12.66-14.44,12.66Zm36.1-.73h-4.71V34.67H292v-4h35.29v4H311.92Zm37.8.73c-12.25,0-23.28-9.09-23.28-23,0-13.71,11-23,23.28-23S373,39,373,52.77s-11,23-23.29,23Zm0-41.95a18.36,18.36,0,0,0-18.49,18.82c0,11.44,8.76,18.91,18.49,18.91a18.48,18.48,0,0,0,18.5-18.91A18.31,18.31,0,0,0,349.72,33.86ZM421.6,52c-.24-3.89-.49-7.78-.65-11.6h-.24C419.09,44,417,48.63,415.19,52.2L403.92,75.48h-1.55L391,52.2c-1.71-3.57-3.74-7.87-5.52-11.77h-.16c-.25,3.82-.41,8-.65,11.52l-1.87,23H378.6l3.57-44.45h3l12.25,24.9c1.94,4,4,8.28,5.76,12.5h.16c1.7-4.06,3.57-8.12,5.68-12.5l12.17-24.9h3L427.85,75h-4.46C423.47,75.08,421.6,52,421.6,52Zm16.23-21.33H461v4h-18.5V50.66H457.7v4H442.53V70.94h20.93v4H437.83Zm46.32,24.09h-7.63V75.08h-4.7V30.62h12.65c6.74,0,13,4.46,13,12A11.47,11.47,0,0,1,488.77,54l15.66,21H499L484.15,54.71Zm-.41-20.12h-7.22V50.66H484c4.7,0,8.76-2.92,8.76-8S488.77,34.59,483.74,34.59Z"/><path class="cls-1" d="M207,126.51H188.2l-5,12.49h-4.62L197,93.65h1.46L216.84,139h-4.79l-5-12.49Zm-9.24-24.34h-.17c-.73,2.44-1.62,4.87-2.43,6.82l-5.36,13.71H205.4L200.13,109C199.32,107,198.51,104.61,197.78,102.17Zm32.61-7.62h4.7V135h22.07v4H230.39Zm37.88,0H273V135H295v4H268.27Zm39.11,0h4.7V139h-4.7Zm47.78,32H336.34l-5,12.49h-4.63L345.1,93.65h1.46L365,139h-4.79l-5-12.49Zm-9.25-24.34h-.16a69.92,69.92,0,0,1-2.44,6.82L338,122.7h15.58L348.26,109A60.87,60.87,0,0,1,345.91,102.17Zm48.19,12.74c-3.81-4.38-7.79-9.09-10.87-12.82l-.16.08c.24,4.14.16,8.28.16,12.33V139h-4.71V94.55h3.25l20.6,23.6c3.09,3.57,7.06,8.28,10.06,11.93l.17-.08c-.25-4-.17-8-.17-11.77V94.55h4.71V140h-1.22L394.1,114.91Zm61.74-17.12c-10,0-19.31,7.14-19.31,18.9s9.08,18.82,19.31,18.82c5.19,0,9.33-1,12.49-3l-1.06,4.79c-2.75,1.62-6.32,2.35-11.92,2.35-11.93,0-23.53-8.68-23.53-23s11.77-23,23.53-23c5.76,0,10.06,1.22,13.06,3l-.89,4.06a25,25,0,0,0-11.68-2.84Zm26.52-3.24h23.21v4h-18.5v16h15.17v4H487.07v16.3H508v4H482.36V94.55Z"/><path class="cls-1" d="M127.28,16.1H54A32.88,32.88,0,0,0,21.25,48.87v73.26A32.88,32.88,0,0,0,54,154.9h73.26a32.88,32.88,0,0,0,32.77-32.77V48.87A32.88,32.88,0,0,0,127.28,16.1ZM115.19,132c-2,.73,3.89-7.22-.65-9.25a40.34,40.34,0,0,1-11.44,1.62,38.91,38.91,0,0,1-12.41-2A39.77,39.77,0,1,1,78.28,44.9a39.24,39.24,0,0,1,12.41,1.94,39.87,39.87,0,0,1,52.16,37.81c-.4,37.15-27.66,47.38-27.66,47.38Z"/><path class="cls-2" d="M63.27,84.73A39.86,39.86,0,0,1,90.61,46.92,39.77,39.77,0,1,0,78.2,124.48a39,39,0,0,0,12.41-2,40,40,0,0,1-27.34-37.8Z"/></svg>